<svg xmlns="http://www.w3.org/2000/svg" width="20" height="18" fill="none"><path fill="#fff" fill-rule="evenodd" d="M20 12.828V0H2.222L0 2.276v12h5.556V18H8l2.667-2.69h6.666L20 12.829ZM6.889 12.62H3.333c-.244 0-.444-.186-.444-.414V2.07c0-.227.2-.413.444-.413h14.223c.244 0 .444.186.444.413v7.862a.396.396 0 0 1-.128.295l-2.444 2.276a.468.468 0 0 1-.317.119h-4.083l-3.445 2.204a.467.467 0 0 1-.455.025.406.406 0 0 1-.24-.367v-1.862Z" clip-rule="evenodd"/><path fill="#fff" d="M13.556 9V4.862h-1.778V9h1.777ZM9.11 9V4.862H7.333V9h1.778Z"/></svg>